# xmcd CD database file
#
# Track frame offsets:
#	150
#	29225
#	46133
#	55222
#	63349
#	93648
#	102848
#	122476
#	134893
#	152723
#	182932
#	197490
#	211214
#	228890
#	249078
#
# Disc length: 3794 seconds
#
# Revision: 0
# Processed by: cddbd v1.5.2PL0 Copyright (c) Steve Scherf et al.
# Submitted via: CDex 1.70beta2
#
DISCID=d10ed00f
DTITLE=Carmel - The Drum Is Everything (2012 edition with bonus tracks)
DYEAR=1984
DGENRE=Jazz
TTITLE0=More More More
TTITLE1=Stormy Weather
TTITLE2=The Drum Is Everything
TTITLE3=I Thought I Was Going Mad
TTITLE4=The Prayer
TTITLE5=Rockin' On Suicide
TTITLE6=Rue St Denis
TTITLE7=Willow Weep For Me
TTITLE8=Tracks Of My Tears
TTITLE9=Bad Day
TTITLE10=Lament (B-Side of Bad Day)
TTITLE11=That's Cool (B-Side of Willow Weep For Me 7")
TTITLE12=Hot Dog (B-Side of More More More)
TTITLE13=Willow Weep For Me (12" Extended Mix)
TTITLE14=Rue St Denis (Dance-Mix) (B-Side of Bad Day 12")
EXTD=YEAR: 1984
EXTT0=
EXTT1=
EXTT2=
EXTT3=
EXTT4=
EXTT5=
EXTT6=
EXTT7=
EXTT8=
EXTT9=
EXTT10=
EXTT11=
EXTT12=
EXTT13=
EXTT14=
PLAYORDER=
